<mxfile modified="2020-07-21T05:22:18.769Z" host="app.diagrams.net" agent="5.0 (X11)" etag="poNoYsVLpiRy0dtAQ2xl" version="13.4.9" type="gitlab">
  <diagram id="Ht1M8jgEwFfnCIfOTk4-" name="Page-1">
    <mxGraphModel dx="1753" dy="941" grid="1" gridSize="10" guides="1" tooltips="1" connect="1" arrows="1" fold="1" page="1" pageScale="1" pageWidth="1200" pageHeight="1920" math="0" shadow="0">
      <root>
        <mxCell id="0" />
        <mxCell id="1" parent="0" />
        <mxCell id="-QjtrjUzRDEMRZ5MF8oH-47" value="&lt;font face=&quot;Garamond&quot;&gt;vSiLK Architecture&lt;/font&gt;" style="text;html=1;resizable=0;points=[];autosize=1;align=left;verticalAlign=top;spacingTop=-4;fontSize=30;fontStyle=1" parent="1" vertex="1">
          <mxGeometry x="52.5" y="64.5" width="340" height="40" as="geometry" />
        </mxCell>
        <mxCell id="-QjtrjUzRDEMRZ5MF8oH-48" value="DRAFT - 21 July 2020" style="text;html=1;resizable=0;points=[];autosize=1;align=left;verticalAlign=top;spacingTop=-4;fontSize=16;fontFamily=Garamond;" parent="1" vertex="1">
          <mxGeometry x="52.5" y="114.5" width="190" height="20" as="geometry" />
        </mxCell>
        <mxCell id="SCVMTBWpLvtzJIhz15lM-1" value="" style="line;strokeWidth=2;html=1;fontSize=14;" parent="1" vertex="1">
          <mxGeometry x="48.5" y="139.5" width="1060" height="10" as="geometry" />
        </mxCell>
        <mxCell id="o8gPVCex7NLgK0Pj0_RW-1" value="" style="outlineConnect=0;fontColor=#232F3E;gradientColor=#945DF2;gradientDirection=north;fillColor=#5A30B5;strokeColor=#ffffff;dashed=0;verticalLabelPosition=bottom;verticalAlign=top;align=center;html=1;fontSize=12;fontStyle=0;aspect=fixed;shape=mxgraph.aws4.resourceIcon;resIcon=mxgraph.aws4.vpc;" parent="1" vertex="1">
          <mxGeometry x="48.5" y="171.5" width="78" height="78" as="geometry" />
        </mxCell>
        <mxCell id="o8gPVCex7NLgK0Pj0_RW-2" value="" style="outlineConnect=0;fontColor=#232F3E;gradientColor=none;fillColor=#5A30B5;strokeColor=none;dashed=0;verticalLabelPosition=bottom;verticalAlign=top;align=center;html=1;fontSize=12;fontStyle=0;aspect=fixed;pointerEvents=1;shape=mxgraph.aws4.flow_logs;" parent="1" vertex="1">
          <mxGeometry x="248.5" y="171.5" width="78" height="78" as="geometry" />
        </mxCell>
        <mxCell id="o8gPVCex7NLgK0Pj0_RW-3" value="" style="outlineConnect=0;fontColor=#232F3E;gradientColor=#945DF2;gradientDirection=north;fillColor=#5A30B5;strokeColor=#ffffff;dashed=0;verticalLabelPosition=bottom;verticalAlign=top;align=center;html=1;fontSize=12;fontStyle=0;aspect=fixed;shape=mxgraph.aws4.resourceIcon;resIcon=mxgraph.aws4.vpc;" parent="1" vertex="1">
          <mxGeometry x="48.5" y="278" width="78" height="78" as="geometry" />
        </mxCell>
        <mxCell id="o8gPVCex7NLgK0Pj0_RW-4" value="" style="outlineConnect=0;fontColor=#232F3E;gradientColor=#945DF2;gradientDirection=north;fillColor=#5A30B5;strokeColor=#ffffff;dashed=0;verticalLabelPosition=bottom;verticalAlign=top;align=center;html=1;fontSize=12;fontStyle=0;aspect=fixed;shape=mxgraph.aws4.resourceIcon;resIcon=mxgraph.aws4.vpc;" parent="1" vertex="1">
          <mxGeometry x="48.5" y="425.5" width="78" height="78" as="geometry" />
        </mxCell>
        <mxCell id="o8gPVCex7NLgK0Pj0_RW-5" value="" style="outlineConnect=0;fontColor=#232F3E;gradientColor=none;fillColor=#5A30B5;strokeColor=none;dashed=0;verticalLabelPosition=bottom;verticalAlign=top;align=center;html=1;fontSize=12;fontStyle=0;aspect=fixed;pointerEvents=1;shape=mxgraph.aws4.flow_logs;" parent="1" vertex="1">
          <mxGeometry x="248.5" y="278" width="78" height="78" as="geometry" />
        </mxCell>
        <mxCell id="o8gPVCex7NLgK0Pj0_RW-6" value="" style="outlineConnect=0;fontColor=#232F3E;gradientColor=none;fillColor=#5A30B5;strokeColor=none;dashed=0;verticalLabelPosition=bottom;verticalAlign=top;align=center;html=1;fontSize=12;fontStyle=0;aspect=fixed;pointerEvents=1;shape=mxgraph.aws4.flow_logs;" parent="1" vertex="1">
          <mxGeometry x="248.5" y="425.5" width="78" height="78" as="geometry" />
        </mxCell>
        <mxCell id="o8gPVCex7NLgK0Pj0_RW-7" value="" style="outlineConnect=0;fontColor=#232F3E;gradientColor=#60A337;gradientDirection=north;fillColor=#277116;strokeColor=#ffffff;dashed=0;verticalLabelPosition=bottom;verticalAlign=top;align=center;html=1;fontSize=12;fontStyle=0;aspect=fixed;shape=mxgraph.aws4.resourceIcon;resIcon=mxgraph.aws4.s3;" parent="1" vertex="1">
          <mxGeometry x="448.5" y="282.5" width="78" height="78" as="geometry" />
        </mxCell>
        <mxCell id="4NLjydOKsZYuCcSBGG9q-1" value="&lt;font face=&quot;Garamond&quot;&gt;container - rwsender&lt;/font&gt;" style="outlineConnect=0;fontColor=#232F3E;gradientColor=none;strokeColor=#232F3E;fillColor=#ffffff;dashed=0;verticalLabelPosition=bottom;verticalAlign=top;align=center;html=1;fontSize=12;fontStyle=0;aspect=fixed;shape=mxgraph.aws4.resourceIcon;resIcon=mxgraph.aws4.container_1;" vertex="1" parent="1">
          <mxGeometry x="658.5" y="208" width="60" height="60" as="geometry" />
        </mxCell>
        <mxCell id="4NLjydOKsZYuCcSBGG9q-2" value="&lt;font face=&quot;Garamond&quot;&gt;container - rwreceiver&lt;/font&gt;" style="outlineConnect=0;fontColor=#232F3E;gradientColor=none;strokeColor=#232F3E;fillColor=#ffffff;dashed=0;verticalLabelPosition=bottom;verticalAlign=top;align=center;html=1;fontSize=12;fontStyle=0;aspect=fixed;shape=mxgraph.aws4.resourceIcon;resIcon=mxgraph.aws4.container_1;" vertex="1" parent="1">
          <mxGeometry x="658.5" y="388" width="60" height="60" as="geometry" />
        </mxCell>
        <mxCell id="4NLjydOKsZYuCcSBGG9q-4" value="1" style="rounded=1;whiteSpace=wrap;html=1;fillColor=#007CBD;strokeColor=none;fontColor=#FFFFFF;fontStyle=1;fontSize=22;labelBackgroundColor=none;" vertex="1" parent="1">
          <mxGeometry x="168.5" y="170" width="40" height="38" as="geometry" />
        </mxCell>
        <mxCell id="4NLjydOKsZYuCcSBGG9q-6" value="2" style="rounded=1;whiteSpace=wrap;html=1;fillColor=#007CBD;strokeColor=none;fontColor=#FFFFFF;fontStyle=1;fontSize=22;labelBackgroundColor=none;" vertex="1" parent="1">
          <mxGeometry x="378.5" y="219" width="40" height="38" as="geometry" />
        </mxCell>
        <mxCell id="4NLjydOKsZYuCcSBGG9q-7" value="3" style="rounded=1;whiteSpace=wrap;html=1;fillColor=#007CBD;strokeColor=none;fontColor=#FFFFFF;fontStyle=1;fontSize=22;labelBackgroundColor=none;" vertex="1" parent="1">
          <mxGeometry x="553.5" y="249.5" width="40" height="38" as="geometry" />
        </mxCell>
        <mxCell id="4NLjydOKsZYuCcSBGG9q-8" value="4" style="rounded=1;whiteSpace=wrap;html=1;fillColor=#007CBD;strokeColor=none;fontColor=#FFFFFF;fontStyle=1;fontSize=22;labelBackgroundColor=none;" vertex="1" parent="1">
          <mxGeometry x="698.5" y="323.5" width="40" height="38" as="geometry" />
        </mxCell>
        <mxCell id="4NLjydOKsZYuCcSBGG9q-14" value="VPC" style="text;html=1;strokeColor=none;fillColor=none;align=center;verticalAlign=middle;whiteSpace=wrap;rounded=0;fontFamily=Garamond;" vertex="1" parent="1">
          <mxGeometry x="67.5" y="252.5" width="40" height="20" as="geometry" />
        </mxCell>
        <mxCell id="4NLjydOKsZYuCcSBGG9q-15" value="VPC" style="text;html=1;strokeColor=none;fillColor=none;align=center;verticalAlign=middle;whiteSpace=wrap;rounded=0;fontFamily=Garamond;" vertex="1" parent="1">
          <mxGeometry x="67.5" y="360.5" width="40" height="20" as="geometry" />
        </mxCell>
        <mxCell id="4NLjydOKsZYuCcSBGG9q-16" value="VPC" style="text;html=1;strokeColor=none;fillColor=none;align=center;verticalAlign=middle;whiteSpace=wrap;rounded=0;fontFamily=Garamond;" vertex="1" parent="1">
          <mxGeometry x="67.5" y="512.5" width="40" height="20" as="geometry" />
        </mxCell>
        <mxCell id="4NLjydOKsZYuCcSBGG9q-17" value="...." style="text;html=1;strokeColor=none;fillColor=none;align=center;verticalAlign=middle;whiteSpace=wrap;rounded=0;" vertex="1" parent="1">
          <mxGeometry x="68.5" y="388" width="40" height="20" as="geometry" />
        </mxCell>
        <mxCell id="4NLjydOKsZYuCcSBGG9q-18" value="...." style="text;html=1;strokeColor=none;fillColor=none;align=center;verticalAlign=middle;whiteSpace=wrap;rounded=0;" vertex="1" parent="1">
          <mxGeometry x="78.5" y="394" width="40" height="20" as="geometry" />
        </mxCell>
        <mxCell id="4NLjydOKsZYuCcSBGG9q-22" value="" style="endArrow=classic;html=1;" edge="1" parent="1" source="o8gPVCex7NLgK0Pj0_RW-1" target="o8gPVCex7NLgK0Pj0_RW-2">
          <mxGeometry width="50" height="50" relative="1" as="geometry">
            <mxPoint x="598.5" y="387.5" as="sourcePoint" />
            <mxPoint x="648.5" y="337.5" as="targetPoint" />
          </mxGeometry>
        </mxCell>
        <mxCell id="4NLjydOKsZYuCcSBGG9q-23" value="" style="endArrow=classic;html=1;" edge="1" parent="1">
          <mxGeometry width="50" height="50" relative="1" as="geometry">
            <mxPoint x="126.5" y="321" as="sourcePoint" />
            <mxPoint x="248.5" y="321" as="targetPoint" />
          </mxGeometry>
        </mxCell>
        <mxCell id="4NLjydOKsZYuCcSBGG9q-24" value="" style="endArrow=classic;html=1;" edge="1" parent="1">
          <mxGeometry width="50" height="50" relative="1" as="geometry">
            <mxPoint x="126.5" y="464" as="sourcePoint" />
            <mxPoint x="248.5" y="464" as="targetPoint" />
          </mxGeometry>
        </mxCell>
        <mxCell id="4NLjydOKsZYuCcSBGG9q-25" value="" style="endArrow=classic;html=1;" edge="1" parent="1" source="o8gPVCex7NLgK0Pj0_RW-2" target="o8gPVCex7NLgK0Pj0_RW-7">
          <mxGeometry width="50" height="50" relative="1" as="geometry">
            <mxPoint x="156.5" y="240.5" as="sourcePoint" />
            <mxPoint x="278.5" y="240.5" as="targetPoint" />
          </mxGeometry>
        </mxCell>
        <mxCell id="4NLjydOKsZYuCcSBGG9q-26" value="" style="endArrow=classic;html=1;" edge="1" parent="1">
          <mxGeometry width="50" height="50" relative="1" as="geometry">
            <mxPoint x="326.5" y="321" as="sourcePoint" />
            <mxPoint x="448.5" y="321" as="targetPoint" />
          </mxGeometry>
        </mxCell>
        <mxCell id="4NLjydOKsZYuCcSBGG9q-27" value="" style="endArrow=classic;html=1;" edge="1" parent="1" source="o8gPVCex7NLgK0Pj0_RW-6" target="o8gPVCex7NLgK0Pj0_RW-7">
          <mxGeometry width="50" height="50" relative="1" as="geometry">
            <mxPoint x="338.5" y="457.5" as="sourcePoint" />
            <mxPoint x="298.5" y="260.5" as="targetPoint" />
          </mxGeometry>
        </mxCell>
        <mxCell id="4NLjydOKsZYuCcSBGG9q-28" value="" style="endArrow=classic;html=1;" edge="1" parent="1" target="4NLjydOKsZYuCcSBGG9q-1">
          <mxGeometry width="50" height="50" relative="1" as="geometry">
            <mxPoint x="526.5" y="329" as="sourcePoint" />
            <mxPoint x="648.5" y="329" as="targetPoint" />
          </mxGeometry>
        </mxCell>
        <mxCell id="4NLjydOKsZYuCcSBGG9q-29" value="" style="endArrow=classic;html=1;" edge="1" parent="1" target="4NLjydOKsZYuCcSBGG9q-2">
          <mxGeometry width="50" height="50" relative="1" as="geometry">
            <mxPoint x="688.5" y="287.5" as="sourcePoint" />
            <mxPoint x="799.5" y="291" as="targetPoint" />
          </mxGeometry>
        </mxCell>
        <mxCell id="4NLjydOKsZYuCcSBGG9q-30" value="VPC Flow logs" style="text;html=1;strokeColor=none;fillColor=none;align=center;verticalAlign=middle;whiteSpace=wrap;rounded=0;fontFamily=Garamond;" vertex="1" parent="1">
          <mxGeometry x="240.5" y="512.5" width="100" height="20" as="geometry" />
        </mxCell>
        <mxCell id="4NLjydOKsZYuCcSBGG9q-31" value="VPC Flow logs" style="text;html=1;strokeColor=none;fillColor=none;align=center;verticalAlign=middle;whiteSpace=wrap;rounded=0;fontFamily=Garamond;" vertex="1" parent="1">
          <mxGeometry x="240.5" y="361.5" width="100" height="20" as="geometry" />
        </mxCell>
        <mxCell id="4NLjydOKsZYuCcSBGG9q-32" value="VPC Flow logs" style="text;html=1;strokeColor=none;fillColor=none;align=center;verticalAlign=middle;whiteSpace=wrap;rounded=0;fontFamily=Garamond;" vertex="1" parent="1">
          <mxGeometry x="240.5" y="252.5" width="100" height="20" as="geometry" />
        </mxCell>
        <mxCell id="4NLjydOKsZYuCcSBGG9q-33" value="S3 - centralised log repository" style="text;html=1;strokeColor=none;fillColor=none;align=center;verticalAlign=middle;whiteSpace=wrap;rounded=0;fontFamily=Garamond;" vertex="1" parent="1">
          <mxGeometry x="437.5" y="371.5" width="100" height="20" as="geometry" />
        </mxCell>
        <mxCell id="7OVz4w7n9kzEPWy-4BBC-3" value="" style="rounded=0;whiteSpace=wrap;html=1;fillColor=#EAEDED;fontSize=22;fontColor=#FFFFFF;strokeColor=none;labelBackgroundColor=none;" parent="1" vertex="1">
          <mxGeometry x="40" y="551" width="1080" height="269" as="geometry" />
        </mxCell>
        <mxCell id="7OVz4w7n9kzEPWy-4BBC-4" value="1" style="rounded=1;whiteSpace=wrap;html=1;fillColor=#007CBD;strokeColor=none;fontColor=#FFFFFF;fontStyle=1;fontSize=22;labelBackgroundColor=none;" parent="1" vertex="1">
          <mxGeometry x="58" y="563" width="40" height="38" as="geometry" />
        </mxCell>
        <mxCell id="7OVz4w7n9kzEPWy-4BBC-5" value="2" style="rounded=1;whiteSpace=wrap;html=1;fillColor=#007CBD;strokeColor=none;fontColor=#FFFFFF;fontStyle=1;fontSize=22;labelBackgroundColor=none;" parent="1" vertex="1">
          <mxGeometry x="61" y="630" width="40" height="38" as="geometry" />
        </mxCell>
        <mxCell id="7OVz4w7n9kzEPWy-4BBC-6" value="3" style="rounded=1;whiteSpace=wrap;html=1;fillColor=#007CBD;strokeColor=none;fontColor=#FFFFFF;fontStyle=1;fontSize=22;labelBackgroundColor=none;" parent="1" vertex="1">
          <mxGeometry x="61" y="692" width="40" height="38" as="geometry" />
        </mxCell>
        <mxCell id="7OVz4w7n9kzEPWy-4BBC-7" value="4" style="rounded=1;whiteSpace=wrap;html=1;fillColor=#007CBD;strokeColor=none;fontColor=#FFFFFF;fontStyle=1;fontSize=22;labelBackgroundColor=none;" parent="1" vertex="1">
          <mxGeometry x="62.5" y="764.5" width="40" height="38" as="geometry" />
        </mxCell>
        <mxCell id="7OVz4w7n9kzEPWy-4BBC-13" value="&lt;font face=&quot;Garamond&quot;&gt;Collection of VPC Flow logs from different VPCs. These VPCs could also be present in multiple AWS accounts. Create VPC Flow logs per ENI (Elastic Network Interface), which plays the role of the &quot;sensor&quot; as mapped to SiLK terminology.&amp;nbsp; &lt;br&gt;&lt;/font&gt;" style="text;html=1;align=left;verticalAlign=top;spacingTop=-4;fontSize=14;labelBackgroundColor=none;whiteSpace=wrap;" parent="1" vertex="1">
          <mxGeometry x="109.5" y="562.5" width="980.5" height="118" as="geometry" />
        </mxCell>
        <mxCell id="7OVz4w7n9kzEPWy-4BBC-14" value="&lt;font face=&quot;Garamond&quot;&gt;Publish the VPC Flow logs to AWS S3, which acts as the centralised log repository for all the flow logs from multiple accounts. &lt;br&gt;&lt;/font&gt;" style="text;html=1;align=left;verticalAlign=top;spacingTop=-4;fontSize=14;labelBackgroundColor=none;whiteSpace=wrap;" parent="1" vertex="1">
          <mxGeometry x="113" y="630.5" width="981.5" height="115" as="geometry" />
        </mxCell>
        <mxCell id="7OVz4w7n9kzEPWy-4BBC-15" value="&lt;font face=&quot;Garamond&quot;&gt;Send the raw VPC flow logs to the container &quot;rwsender&quot; using fluentd for processing and conversion into SiLK format. The VPC flow log file will first be converted into a format that can be processed by &quot;rwtuc&quot; and also to remove erroneous records that are logged in the VPC Flow log. &lt;/font&gt;" style="text;html=1;align=left;verticalAlign=top;spacingTop=-4;fontSize=14;labelBackgroundColor=none;whiteSpace=wrap;" parent="1" vertex="1">
          <mxGeometry x="113" y="690.5" width="981.5" height="117" as="geometry" />
        </mxCell>
        <mxCell id="7OVz4w7n9kzEPWy-4BBC-16" value="&lt;span&gt;Send the raw logs to the container &quot;rwreceiver&quot; which can then be used by the analyst for querying historical logs. The &quot;rwreceiver&quot; container also includes an installation of FlowBAT and FlowPlotter to provide analysts a GUI view of the data. &lt;/span&gt;" style="text;html=1;align=left;verticalAlign=top;spacingTop=-4;fontSize=14;labelBackgroundColor=none;whiteSpace=wrap;fontFamily=Garamond;" parent="1" vertex="1">
          <mxGeometry x="114.5" y="765" width="981.5" height="121" as="geometry" />
        </mxCell>
      </root>
    </mxGraphModel>
  </diagram>
</mxfile>
